<svg height="638" width="720" xmlns="http://www.w3.org/2000/svg">
<rect height="638" fill="#555" width="720"></rect>
<text fill="#7f7" font-family="Courier New" font-size="12" xml:space="preserve">
<tspan x="10" y="26">└─┬ koa@2.2.0 </tspan>
<tspan x="10" y="42">  ├─┬ accepts@1.3.3 </tspan>
<tspan x="10" y="58">  │ └── negotiator@0.6.1 </tspan>
<tspan x="10" y="74">  ├── content-disposition@0.5.2 </tspan>
<tspan x="10" y="90">  ├── content-type@1.0.2 </tspan>
<tspan x="10" y="106">  ├─┬ cookies@0.7.0 </tspan>
<tspan x="10" y="122">  │ └── keygrip@1.0.1 </tspan>
<tspan x="10" y="138">  ├─┬ debug@2.6.3 </tspan>
<tspan x="10" y="154">  │ └── ms@0.7.2 </tspan>
<tspan x="10" y="170">  ├── delegates@1.0.0 </tspan>
<tspan x="10" y="186">  ├── depd@1.1.0 </tspan>
<tspan x="10" y="202">  ├── destroy@1.0.4 </tspan>
<tspan x="10" y="218">  ├── error-inject@1.0.0 </tspan>
<tspan x="10" y="234">  ├── escape-html@1.0.3 </tspan>
<tspan x="10" y="250">  ├── fresh@0.5.0 </tspan>
<tspan x="10" y="266">  ├─┬ http-assert@1.2.0 </tspan>
<tspan x="10" y="282">  │ ├── deep-equal@1.0.1 </tspan>
<tspan x="10" y="298">  │ └─┬ http-errors@1.4.0 </tspan>
<tspan x="10" y="314">  │   └── inherits@2.0.1 </tspan>
<tspan x="10" y="330">  ├─┬ http-errors@1.6.1 </tspan>
<tspan x="10" y="346">  │ ├── inherits@2.0.3 </tspan>
<tspan x="10" y="362">  │ └── setprototypeof@1.0.3 </tspan>
<tspan x="10" y="378">  ├── is-generator-function@1.0.6 </tspan>
<tspan x="10" y="394">  ├─┬ koa-compose@3.2.1 </tspan>
<tspan x="10" y="410">  │ └── any-promise@1.3.0 </tspan>
<tspan x="10" y="426">  ├─┬ koa-convert@1.2.0 </tspan>
<tspan x="10" y="442">  │ └── co@4.6.0 </tspan>
<tspan x="10" y="458">  ├── koa-is-json@1.0.0 </tspan>
<tspan x="10" y="474">  ├─┬ mime-types@2.1.15 </tspan>
<tspan x="10" y="490">  │ └── mime-db@1.27.0 </tspan>
<tspan x="10" y="506">  ├─┬ on-finished@2.3.0 </tspan>
<tspan x="10" y="522">  │ └── ee-first@1.1.1 </tspan>
<tspan x="10" y="538">  ├── only@0.0.2 </tspan>
<tspan x="10" y="554">  ├── parseurl@1.3.1 </tspan>
<tspan x="10" y="570">  ├── statuses@1.3.1 </tspan>
<tspan x="10" y="586">  ├─┬ type-is@1.6.15 </tspan>
<tspan x="10" y="602">  │ └── media-typer@0.3.0 </tspan>
<tspan x="10" y="618">  └── vary@1.1.1</tspan>
</text>
</svg>
